<svg xmlns="http://www.w3.org/2000/svg" xmlns:xlink="http://www.w3.org/1999/xlink" width="1920" zoomAndPan="magnify" viewBox="0 0 1440 809.999993" height="1080" preserveAspectRatio="xMidYMid meet" version="1.0"><defs><g/><clipPath id="370ebe21c0"><path d="M 48.835938 277.984375 L 223.292969 277.984375 L 223.292969 332.515625 L 48.835938 332.515625 Z M 48.835938 277.984375 " clip-rule="nonzero"/></clipPath><clipPath id="a159e0b109"><path d="M 66.085938 277.984375 L 205.835938 277.984375 C 210.410156 277.984375 214.796875 279.800781 218.03125 283.035156 C 221.269531 286.273438 223.085938 290.660156 223.085938 295.234375 L 223.085938 315.265625 C 223.085938 319.839844 221.269531 324.226562 218.03125 327.460938 C 214.796875 330.699219 210.410156 332.515625 205.835938 332.515625 L 66.085938 332.515625 C 61.507812 332.515625 57.121094 330.699219 53.886719 327.460938 C 50.652344 324.226562 48.835938 319.839844 48.835938 315.265625 L 48.835938 295.234375 C 48.835938 290.660156 50.652344 286.273438 53.886719 283.035156 C 57.121094 279.800781 61.507812 277.984375 66.085938 277.984375 Z M 66.085938 277.984375 " clip-rule="nonzero"/></clipPath><clipPath id="0de1cf49e8"><path d="M 0.835938 0.984375 L 175.199219 0.984375 L 175.199219 55.515625 L 0.835938 55.515625 Z M 0.835938 0.984375 " clip-rule="nonzero"/></clipPath><clipPath id="8022246f36"><path d="M 18.085938 0.984375 L 157.835938 0.984375 C 162.410156 0.984375 166.796875 2.800781 170.03125 6.035156 C 173.269531 9.273438 175.085938 13.660156 175.085938 18.234375 L 175.085938 38.265625 C 175.085938 42.839844 173.269531 47.226562 170.03125 50.460938 C 166.796875 53.699219 162.410156 55.515625 157.835938 55.515625 L 18.085938 55.515625 C 13.507812 55.515625 9.121094 53.699219 5.886719 50.460938 C 2.652344 47.226562 0.835938 42.839844 0.835938 38.265625 L 0.835938 18.234375 C 0.835938 13.660156 2.652344 9.273438 5.886719 6.035156 C 9.121094 2.800781 13.507812 0.984375 18.085938 0.984375 Z M 18.085938 0.984375 " clip-rule="nonzero"/></clipPath><clipPath id="69097d569c"><rect x="0" width="176" y="0" height="56"/></clipPath><clipPath id="d65c6aac3b"><path d="M 48.835938 344.453125 L 310.625 344.453125 L 310.625 398.984375 L 48.835938 398.984375 Z M 48.835938 344.453125 " clip-rule="nonzero"/></clipPath><clipPath id="6de918d87e"><path d="M 66.085938 344.453125 L 293.269531 344.453125 C 297.84375 344.453125 302.230469 346.269531 305.464844 349.503906 C 308.699219 352.738281 310.519531 357.125 310.519531 361.703125 L 310.519531 381.734375 C 310.519531 386.308594 308.699219 390.695312 305.464844 393.929688 C 302.230469 397.164062 297.84375 398.984375 293.269531 398.984375 L 66.085938 398.984375 C 61.507812 398.984375 57.121094 397.164062 53.886719 393.929688 C 50.652344 390.695312 48.835938 386.308594 48.835938 381.734375 L 48.835938 361.703125 C 48.835938 357.125 50.652344 352.738281 53.886719 349.503906 C 57.121094 346.269531 61.507812 344.453125 66.085938 344.453125 Z M 66.085938 344.453125 " clip-rule="nonzero"/></clipPath><clipPath id="70fddb6137"><path d="M 0.835938 0.453125 L 262.558594 0.453125 L 262.558594 54.984375 L 0.835938 54.984375 Z M 0.835938 0.453125 " clip-rule="nonzero"/></clipPath><clipPath id="079b0fd0e0"><path d="M 18.085938 0.453125 L 245.269531 0.453125 C 249.84375 0.453125 254.230469 2.269531 257.464844 5.503906 C 260.699219 8.738281 262.519531 13.125 262.519531 17.703125 L 262.519531 37.734375 C 262.519531 42.308594 260.699219 46.695312 257.464844 49.929688 C 254.230469 53.164062 249.84375 54.984375 245.269531 54.984375 L 18.085938 54.984375 C 13.507812 54.984375 9.121094 53.164062 5.886719 49.929688 C 2.652344 46.695312 0.835938 42.308594 0.835938 37.734375 L 0.835938 17.703125 C 0.835938 13.125 2.652344 8.738281 5.886719 5.503906 C 9.121094 2.269531 13.507812 0.453125 18.085938 0.453125 Z M 18.085938 0.453125 " clip-rule="nonzero"/></clipPath><clipPath id="b5b174ac41"><rect x="0" width="263" y="0" height="55"/></clipPath><clipPath id="283669511c"><path d="M 48.835938 411.015625 L 397.535156 411.015625 L 397.535156 465.546875 L 48.835938 465.546875 Z M 48.835938 411.015625 " clip-rule="nonzero"/></clipPath><clipPath id="bab1e11447"><path d="M 66.085938 411.015625 L 380.085938 411.015625 C 384.660156 411.015625 389.050781 412.835938 392.285156 416.070312 C 395.519531 419.304688 397.335938 423.691406 397.335938 428.265625 L 397.335938 448.296875 C 397.335938 452.875 395.519531 457.261719 392.285156 460.496094 C 389.050781 463.730469 384.660156 465.546875 380.085938 465.546875 L 66.085938 465.546875 C 61.507812 465.546875 57.121094 463.730469 53.886719 460.496094 C 50.652344 457.261719 48.835938 452.875 48.835938 448.296875 L 48.835938 428.265625 C 48.835938 423.691406 50.652344 419.304688 53.886719 416.070312 C 57.121094 412.835938 61.507812 411.015625 66.085938 411.015625 Z M 66.085938 411.015625 " clip-rule="nonzero"/></clipPath><clipPath id="cee185229e"><path d="M 0.835938 0.015625 L 349.441406 0.015625 L 349.441406 54.546875 L 0.835938 54.546875 Z M 0.835938 0.015625 " clip-rule="nonzero"/></clipPath><clipPath id="580083856a"><path d="M 18.085938 0.015625 L 332.085938 0.015625 C 336.660156 0.015625 341.050781 1.835938 344.285156 5.070312 C 347.519531 8.304688 349.335938 12.691406 349.335938 17.265625 L 349.335938 37.296875 C 349.335938 41.875 347.519531 46.261719 344.285156 49.496094 C 341.050781 52.730469 336.660156 54.546875 332.085938 54.546875 L 18.085938 54.546875 C 13.507812 54.546875 9.121094 52.730469 5.886719 49.496094 C 2.652344 46.261719 0.835938 41.875 0.835938 37.296875 L 0.835938 17.265625 C 0.835938 12.691406 2.652344 8.304688 5.886719 5.070312 C 9.121094 1.835938 13.507812 0.015625 18.085938 0.015625 Z M 18.085938 0.015625 " clip-rule="nonzero"/></clipPath><clipPath id="0aa8698ead"><rect x="0" width="350" y="0" height="55"/></clipPath><clipPath id="6ce2b4337a"><path d="M 48.835938 477.484375 L 465 477.484375 L 465 532.015625 L 48.835938 532.015625 Z M 48.835938 477.484375 " clip-rule="nonzero"/></clipPath><clipPath id="58334b65ca"><path d="M 66.085938 477.484375 L 447.695312 477.484375 C 452.273438 477.484375 456.660156 479.300781 459.894531 482.539062 C 463.128906 485.773438 464.945312 490.160156 464.945312 494.734375 L 464.945312 514.765625 C 464.945312 519.339844 463.128906 523.726562 459.894531 526.964844 C 456.660156 530.199219 452.273438 532.015625 447.695312 532.015625 L 66.085938 532.015625 C 61.507812 532.015625 57.121094 530.199219 53.886719 526.964844 C 50.652344 523.726562 48.835938 519.339844 48.835938 514.765625 L 48.835938 494.734375 C 48.835938 490.160156 50.652344 485.773438 53.886719 482.539062 C 57.121094 479.300781 61.507812 477.484375 66.085938 477.484375 Z M 66.085938 477.484375 " clip-rule="nonzero"/></clipPath><clipPath id="cfb16d5963"><path d="M 0.835938 0.484375 L 417 0.484375 L 417 55.015625 L 0.835938 55.015625 Z M 0.835938 0.484375 " clip-rule="nonzero"/></clipPath><clipPath id="98096c959d"><path d="M 18.085938 0.484375 L 399.695312 0.484375 C 404.273438 0.484375 408.660156 2.300781 411.894531 5.539062 C 415.128906 8.773438 416.945312 13.160156 416.945312 17.734375 L 416.945312 37.765625 C 416.945312 42.339844 415.128906 46.726562 411.894531 49.964844 C 408.660156 53.199219 404.273438 55.015625 399.695312 55.015625 L 18.085938 55.015625 C 13.507812 55.015625 9.121094 53.199219 5.886719 49.964844 C 2.652344 46.726562 0.835938 42.339844 0.835938 37.765625 L 0.835938 17.734375 C 0.835938 13.160156 2.652344 8.773438 5.886719 5.539062 C 9.121094 2.300781 13.507812 0.484375 18.085938 0.484375 Z M 18.085938 0.484375 " clip-rule="nonzero"/></clipPath><clipPath id="858a1e584b"><rect x="0" width="417" y="0" height="56"/></clipPath></defs><g clip-path="url(#370ebe21c0)"><g clip-path="url(#a159e0b109)"><g transform="matrix(1, 0, 0, 1, 48, 277)"><g clip-path="url(#69097d569c)"><g clip-path="url(#0de1cf49e8)"><g clip-path="url(#8022246f36)"><path fill="#6c63b8" d="M 0.835938 0.984375 L 175.078125 0.984375 L 175.078125 55.515625 L 0.835938 55.515625 Z M 0.835938 0.984375 " fill-opacity="1" fill-rule="nonzero"/></g></g></g></g></g></g><g clip-path="url(#d65c6aac3b)"><g clip-path="url(#6de918d87e)"><g transform="matrix(1, 0, 0, 1, 48, 344)"><g clip-path="url(#b5b174ac41)"><g clip-path="url(#70fddb6137)"><g clip-path="url(#079b0fd0e0)"><path fill="#6385e8" d="M 0.835938 0.453125 L 262.414062 0.453125 L 262.414062 54.984375 L 0.835938 54.984375 Z M 0.835938 0.453125 " fill-opacity="1" fill-rule="nonzero"/></g></g></g></g></g></g><g clip-path="url(#283669511c)"><g clip-path="url(#bab1e11447)"><g transform="matrix(1, 0, 0, 1, 48, 411)"><g clip-path="url(#0aa8698ead)"><g clip-path="url(#cee185229e)"><g clip-path="url(#580083856a)"><path fill="#31c8ab" d="M 0.835938 0.015625 L 349.320312 0.015625 L 349.320312 54.546875 L 0.835938 54.546875 Z M 0.835938 0.015625 " fill-opacity="1" fill-rule="nonzero"/></g></g></g></g></g></g><g clip-path="url(#6ce2b4337a)"><g clip-path="url(#58334b65ca)"><g transform="matrix(1, 0, 0, 1, 48, 477)"><g clip-path="url(#858a1e584b)"><g clip-path="url(#cfb16d5963)"><g clip-path="url(#98096c959d)"><path fill="#eeb03c" d="M 0.835938 0.484375 L 416.847656 0.484375 L 416.847656 55.015625 L 0.835938 55.015625 Z M 0.835938 0.484375 " fill-opacity="1" fill-rule="nonzero"/></g></g></g></g></g></g><g fill="#ffffff" fill-opacity="1"><g transform="translate(463.073977, 468.07857)"><g><path d="M 83.28125 -192.171875 C 93.5 -192.171875 103.488281 -190.679688 113.25 -187.703125 C 123.007812 -184.734375 130.253906 -181.800781 134.984375 -178.90625 L 141.84375 -174.328125 L 124.453125 -140.015625 C 123.078125 -140.929688 121.171875 -142.113281 118.734375 -143.5625 C 116.296875 -145.007812 111.71875 -146.953125 105 -149.390625 C 98.289062 -151.828125 92.039062 -153.046875 86.25 -153.046875 C 79.082031 -153.046875 73.550781 -151.519531 69.65625 -148.46875 C 65.769531 -145.425781 63.828125 -141.3125 63.828125 -136.125 C 63.828125 -133.53125 64.742188 -131.125 66.578125 -128.90625 C 68.410156 -126.695312 71.535156 -124.332031 75.953125 -121.8125 C 80.378906 -119.300781 84.269531 -117.28125 87.625 -115.75 C 90.976562 -114.226562 96.164062 -111.945312 103.1875 -108.90625 C 115.382812 -103.71875 125.789062 -96.660156 134.40625 -87.734375 C 143.019531 -78.816406 147.328125 -68.710938 147.328125 -57.421875 C 147.328125 -46.597656 145.382812 -37.144531 141.5 -29.0625 C 137.613281 -20.976562 132.273438 -14.644531 125.484375 -10.0625 C 118.703125 -5.488281 111.191406 -2.097656 102.953125 0.109375 C 94.710938 2.328125 85.789062 3.4375 76.1875 3.4375 C 67.945312 3.4375 59.859375 2.597656 51.921875 0.921875 C 43.992188 -0.753906 37.359375 -2.851562 32.015625 -5.375 C 26.679688 -7.894531 21.878906 -10.375 17.609375 -12.8125 C 13.335938 -15.25 10.210938 -17.304688 8.234375 -18.984375 L 5.265625 -21.5 L 26.765625 -57.65625 C 28.597656 -56.125 31.113281 -54.175781 34.3125 -51.8125 C 37.519531 -49.445312 43.203125 -46.28125 51.359375 -42.3125 C 59.515625 -38.351562 66.722656 -36.375 72.984375 -36.375 C 91.128906 -36.375 100.203125 -42.550781 100.203125 -54.90625 C 100.203125 -57.5 99.550781 -59.898438 98.25 -62.109375 C 96.957031 -64.328125 94.671875 -66.539062 91.390625 -68.75 C 88.117188 -70.957031 85.222656 -72.707031 82.703125 -74 C 80.179688 -75.300781 76.0625 -77.285156 70.34375 -79.953125 C 64.625 -82.628906 60.394531 -84.648438 57.65625 -86.015625 C 46.21875 -91.660156 37.367188 -98.710938 31.109375 -107.171875 C 24.859375 -115.640625 21.734375 -124.753906 21.734375 -134.515625 C 21.734375 -151.453125 27.984375 -165.296875 40.484375 -176.046875 C 52.992188 -186.796875 67.257812 -192.171875 83.28125 -192.171875 Z M 83.28125 -192.171875 "/></g></g></g><g fill="#ffffff" fill-opacity="1"><g transform="translate(616.813897, 468.07857)"><g><path d="M 134.515625 -102.828125 C 145.503906 -90.859375 151 -76.179688 151 -58.796875 C 151 -41.410156 145.503906 -26.691406 134.515625 -14.640625 C 123.535156 -2.585938 109.582031 3.4375 92.65625 3.4375 C 77.101562 3.4375 64.289062 -1.441406 54.21875 -11.203125 L 54.21875 59.484375 L 13.734375 59.484375 L 13.734375 -117.359375 L 53.765625 -117.359375 L 53.765625 -104.09375 L 54.21875 -104.09375 C 64.289062 -115.226562 77.101562 -120.796875 92.65625 -120.796875 C 109.582031 -120.796875 123.535156 -114.804688 134.515625 -102.828125 Z M 100.09375 -38.890625 C 105.351562 -44.078125 107.984375 -50.710938 107.984375 -58.796875 C 107.984375 -66.878906 105.46875 -73.472656 100.4375 -78.578125 C 95.40625 -83.691406 88.769531 -86.25 80.53125 -86.25 C 72.601562 -86.25 66.082031 -83.65625 60.96875 -78.46875 C 55.863281 -73.28125 53.3125 -66.722656 53.3125 -58.796875 C 53.3125 -50.710938 55.941406 -44.078125 61.203125 -38.890625 C 66.460938 -33.703125 72.90625 -31.109375 80.53125 -31.109375 C 88.3125 -31.109375 94.832031 -33.703125 100.09375 -38.890625 Z M 100.09375 -38.890625 "/></g></g></g><g fill="#ffffff" fill-opacity="1"><g transform="translate(773.070374, 468.07857)"><g><path d="M 132.46875 -53.078125 L 47.359375 -53.078125 C 47.359375 -44.835938 50.023438 -38.734375 55.359375 -34.765625 C 60.703125 -30.804688 66.5 -28.828125 72.75 -28.828125 C 79.3125 -28.828125 84.5 -29.703125 88.3125 -31.453125 C 92.125 -33.210938 96.46875 -36.679688 101.34375 -41.859375 L 130.640625 -27.21875 C 118.429688 -6.78125 98.144531 3.4375 69.78125 3.4375 C 52.082031 3.4375 36.90625 -2.625 24.25 -14.75 C 11.59375 -26.875 5.265625 -41.476562 5.265625 -58.5625 C 5.265625 -75.644531 11.59375 -90.285156 24.25 -102.484375 C 36.90625 -114.691406 52.082031 -120.796875 69.78125 -120.796875 C 88.382812 -120.796875 103.519531 -115.414062 115.1875 -104.65625 C 126.851562 -93.90625 132.6875 -78.539062 132.6875 -58.5625 C 132.6875 -55.820312 132.613281 -53.992188 132.46875 -53.078125 Z M 48.5 -75.5 L 93.109375 -75.5 C 92.191406 -81.601562 89.789062 -86.289062 85.90625 -89.5625 C 82.019531 -92.84375 77.023438 -94.484375 70.921875 -94.484375 C 64.210938 -94.484375 58.875 -92.726562 54.90625 -89.21875 C 50.9375 -85.71875 48.800781 -81.144531 48.5 -75.5 Z M 48.5 -75.5 "/></g></g></g><g fill="#31c8ab" fill-opacity="1"><g transform="translate(911.034892, 468.07857)"><g><path d="M 21.734375 -14.640625 C 10.753906 -26.691406 5.265625 -41.410156 5.265625 -58.796875 C 5.265625 -76.179688 10.753906 -90.859375 21.734375 -102.828125 C 32.710938 -114.804688 46.664062 -120.796875 63.59375 -120.796875 C 79.15625 -120.796875 91.96875 -115.226562 102.03125 -104.09375 L 102.5 -104.09375 L 102.5 -117.359375 L 142.53125 -117.359375 L 142.53125 59.484375 L 102.03125 59.484375 L 102.03125 -11.203125 C 91.96875 -1.441406 79.15625 3.4375 63.59375 3.4375 C 46.664062 3.4375 32.710938 -2.585938 21.734375 -14.640625 Z M 55.8125 -78.578125 C 50.78125 -73.472656 48.265625 -66.878906 48.265625 -58.796875 C 48.265625 -50.710938 50.894531 -44.078125 56.15625 -38.890625 C 61.425781 -33.703125 67.953125 -31.109375 75.734375 -31.109375 C 83.359375 -31.109375 89.800781 -33.703125 95.0625 -38.890625 C 100.320312 -44.078125 102.953125 -50.710938 102.953125 -58.796875 C 102.953125 -66.722656 100.394531 -73.28125 95.28125 -78.46875 C 90.175781 -83.65625 83.660156 -86.25 75.734375 -86.25 C 67.492188 -86.25 60.851562 -83.691406 55.8125 -78.578125 Z M 55.8125 -78.578125 "/></g></g></g><g fill="#ffffff" fill-opacity="1"><g transform="translate(1067.292697, 468.07857)"><g><path d="M 20.59375 -117.359375 L 20.59375 -161.0625 L 61.078125 -161.0625 L 61.078125 -117.359375 L 85.796875 -117.359375 L 85.796875 -86.484375 L 61.078125 -86.484375 L 61.078125 -49.1875 C 61.078125 -38.351562 64.128906 -32.9375 70.234375 -32.9375 C 71.765625 -32.9375 73.367188 -33.242188 75.046875 -33.859375 C 76.722656 -34.472656 78.015625 -35.082031 78.921875 -35.6875 L 80.296875 -36.609375 L 90.375 -3.890625 C 81.675781 0.992188 71.757812 3.4375 60.625 3.4375 C 53 3.4375 46.441406 2.101562 40.953125 -0.5625 C 35.460938 -3.238281 31.304688 -6.828125 28.484375 -11.328125 C 25.660156 -15.828125 23.640625 -20.550781 22.421875 -25.5 C 21.203125 -30.457031 20.59375 -35.757812 20.59375 -41.40625 L 20.59375 -86.484375 L 3.65625 -86.484375 L 3.65625 -117.359375 Z M 20.59375 -117.359375 "/></g></g></g><g fill="#ffffff" fill-opacity="1"><g transform="translate(1157.66062, 468.07857)"><g><path d="M 13.734375 0 L 13.734375 -117.359375 L 54.21875 -117.359375 L 54.21875 -100.4375 L 54.671875 -100.4375 C 54.984375 -101.039062 55.476562 -101.800781 56.15625 -102.71875 C 56.84375 -103.632812 58.332031 -105.234375 60.625 -107.515625 C 62.914062 -109.804688 65.359375 -111.867188 67.953125 -113.703125 C 70.546875 -115.535156 73.898438 -117.175781 78.015625 -118.625 C 82.128906 -120.070312 86.320312 -120.796875 90.59375 -120.796875 C 95.019531 -120.796875 99.367188 -120.1875 103.640625 -118.96875 C 107.910156 -117.75 111.035156 -116.53125 113.015625 -115.3125 L 116.21875 -113.46875 L 99.296875 -79.15625 C 94.253906 -83.425781 87.238281 -85.5625 78.25 -85.5625 C 73.363281 -85.5625 69.164062 -84.492188 65.65625 -82.359375 C 62.144531 -80.222656 59.664062 -77.628906 58.21875 -74.578125 C 56.769531 -71.523438 55.738281 -68.929688 55.125 -66.796875 C 54.519531 -64.660156 54.21875 -62.984375 54.21875 -61.765625 L 54.21875 0 Z M 13.734375 0 "/></g></g></g></svg>